<?xml version="1.0" encoding="UTF-8" standalone="no"?>
<svg xmlns="http://www.w3.org/2000/svg" version="1.1" viewBox="340 400 330 240">
<path d="M 498.62 425.40 C 488.67 431.58 479.97 439.02 472.40 447.96 L 472.22 447.89 C 464.15 444.75 455.67 442.93 447.00 442.74 C 421.28 442.05 396.23 455.82 382.39 477.39 C 365.85 502.85 366.37 538.24 383.86 563.10 C 393.62 577.50 408.96 587.66 425.52 592.54 C 438.75 596.17 453.12 596.13 466.26 592.12 C 473.44 601.70 482.60 609.16 492.61 615.59 C 464.56 630.86 428.73 630.48 400.04 617.05 C 380.05 607.76 363.02 591.96 352.28 572.72 C 333.96 540.43 333.76 498.38 352.02 466.02 C 362.40 446.87 378.97 431.14 398.49 421.52 C 429.66 405.86 468.77 407.29 498.62 425.40 Z" fill="#6e296a" />
<path d="M 586.64 416.39 C 600.98 421.15 614.27 429.43 625.42 439.59 C 627.21 441.15 628.75 442.94 630.26 444.76 C 622.54 452.33 615.04 460.14 607.19 467.58 C 598.08 457.57 586.11 449.61 573.00 445.99 C 559.34 441.99 544.65 442.09 531.02 446.18 C 523.92 436.63 514.95 428.30 505.03 421.70 C 529.78 408.46 560.27 407.60 586.64 416.39 Z" fill="#25a2a7" />
<path d="M 498.62 425.40 L 498.75 425.48 C 508.75 431.32 517.34 439.16 524.49 448.23 C 514.88 452.45 506.25 458.25 499.05 465.91 C 491.49 458.28 482.34 452.04 472.40 447.96 C 479.97 439.02 488.67 431.58 498.62 425.40 Z" fill="#2b1640" />
<path d="M 472.22 447.89 L 472.40 447.96 C 482.34 452.04 491.49 458.28 499.05 465.91 C 506.25 458.25 514.88 452.45 524.49 448.23 C 526.00 449.98 527.59 451.66 529.12 453.38 C 533.86 452.38 538.32 450.82 543.21 450.69 C 543.10 459.59 543.74 468.64 542.63 477.48 C 538.66 469.34 534.75 460.70 529.11 453.56 C 519.35 456.78 510.43 463.11 503.21 470.33 C 505.40 473.48 507.61 476.58 509.41 479.98 C 510.64 480.10 511.88 480.20 513.11 480.29 C 511.34 480.57 509.03 480.23 507.97 481.94 C 502.19 489.95 498.36 499.23 496.84 509.01 C 490.25 509.30 483.71 509.02 477.12 508.90 C 478.09 501.44 480.24 494.18 483.34 487.34 C 486.20 481.05 490.11 475.68 494.28 470.23 C 486.84 462.53 478.16 456.88 468.24 452.92 C 469.56 451.24 470.83 449.53 472.22 447.89 Z" fill="#cecece" />
<path d="M 468.24 452.92 C 478.16 456.88 486.84 462.53 494.28 470.23 C 490.11 475.68 486.20 481.05 483.34 487.34 C 480.24 494.18 478.09 501.44 477.12 508.90 C 470.74 508.74 464.37 508.93 457.99 509.16 C 456.83 507.04 455.68 504.77 453.96 503.05 C 451.95 501.05 449.48 499.99 446.98 498.77 C 449.73 481.76 457.49 466.25 468.24 452.92 Z" fill="#147179" />
<path d="M 529.11 453.56 C 534.75 460.70 538.66 469.34 542.63 477.48 C 542.95 478.46 543.26 479.44 543.58 480.41 C 533.43 480.37 523.27 480.42 513.11 480.29 C 511.88 480.20 510.64 480.10 509.41 479.98 C 507.61 476.58 505.40 473.48 503.21 470.33 C 510.43 463.11 519.35 456.78 529.11 453.56 Z" fill="#6b2764" />
<path d="M 543.01 513.05 C 545.96 519.81 543.02 527.97 536.94 531.90 C 531.51 535.51 524.03 535.11 518.92 531.11 C 516.33 529.04 515.06 525.29 513.72 522.35 C 501.42 522.22 489.13 522.39 476.84 522.26 C 476.84 519.88 476.82 517.51 476.80 515.13 C 489.10 514.72 501.44 515.41 513.75 514.96 C 515.86 510.22 517.86 505.98 523.15 504.20 C 531.05 501.14 539.72 505.52 543.01 513.05 Z" fill="#cdcece" />
<path d="M 448.49 506.52 C 451.50 508.78 452.79 511.90 454.09 515.29 C 461.66 515.35 469.24 515.41 476.80 515.13 C 476.82 517.51 476.84 519.88 476.84 522.26 C 469.34 522.11 461.82 522.19 454.32 522.32 C 453.29 525.16 452.22 527.85 450.02 530.02 C 444.53 535.71 435.00 536.17 428.96 531.07 C 422.47 525.76 421.60 515.38 427.04 509.01 C 432.15 502.66 442.05 501.53 448.49 506.52 Z" fill="#6d2967" />
<path d="M 565.85 509.06 C 571.58 508.71 577.27 509.17 583.00 509.09 C 607.75 509.10 632.50 509.08 657.25 509.14 C 659.34 531.32 655.18 553.75 644.22 573.23 C 624.84 608.44 583.86 630.26 543.83 626.77 C 530.63 625.67 516.83 622.27 505.42 615.36 C 515.37 608.76 523.46 601.36 530.96 592.08 C 538.72 594.61 546.87 595.50 555.00 595.09 C 572.62 594.46 589.96 586.69 602.99 574.98 C 613.39 565.77 620.34 553.25 623.27 539.73 C 605.18 539.53 587.07 539.66 568.97 539.59 C 567.69 539.33 565.53 540.20 565.81 538.09 C 565.82 528.42 565.88 518.74 565.85 509.06 Z" fill="#25a2a7" />
<path d="M 458.28 528.56 C 464.59 528.36 470.92 528.51 477.24 528.52 C 479.26 543.07 484.88 556.61 493.97 568.17 C 487.17 575.78 478.13 581.47 468.75 585.36 C 463.38 578.40 458.47 571.18 454.85 563.13 C 451.16 555.44 448.92 547.30 447.14 538.98 C 449.56 537.78 451.87 536.74 453.85 534.85 C 455.74 533.04 456.87 530.73 458.28 528.56 Z" fill="#147178" />
<path d="M 477.24 528.52 C 483.90 528.65 490.52 528.19 497.17 528.57 C 497.99 532.78 498.61 536.83 500.20 540.84 C 502.55 546.71 505.78 552.09 509.46 557.21 C 507.47 560.88 505.37 564.36 503.00 567.78 C 509.71 575.54 518.80 581.33 528.38 584.87 C 527.07 586.61 525.76 588.32 524.37 590.00 C 518.56 587.28 512.67 584.32 507.50 580.50 C 504.30 578.15 501.60 575.34 498.71 572.65 C 491.13 580.02 482.49 586.09 472.73 590.21 C 480.26 598.77 488.83 606.27 498.80 611.88 C 496.72 613.09 494.69 614.38 492.61 615.59 C 482.60 609.16 473.44 601.70 466.26 592.12 C 468.15 591.40 470.01 590.58 471.85 589.74 C 470.83 588.27 469.80 586.81 468.75 585.36 C 478.13 581.47 487.17 575.78 493.97 568.17 C 484.88 556.61 479.26 543.07 477.24 528.52 Z" fill="#cfcfcf" />
<path d="M 509.46 557.21 C 520.87 557.04 532.29 557.28 543.70 557.07 C 543.33 558.50 542.95 559.92 542.58 561.35 C 538.49 569.66 534.50 577.64 528.77 584.98 L 528.38 584.87 C 518.80 581.33 509.71 575.54 503.00 567.78 C 505.37 564.36 507.47 560.88 509.46 557.21 Z" fill="#6c2865" />
<path d="M 542.58 561.35 C 543.16 564.25 543.41 567.05 543.27 570.00 C 543.01 576.06 543.25 582.12 543.07 588.18 C 538.15 587.75 533.48 586.40 528.77 584.98 C 534.50 577.64 538.49 569.66 542.58 561.35 Z" fill="#cececd" />
<path d="M 498.71 572.65 C 501.60 575.34 504.30 578.15 507.50 580.50 C 512.67 584.32 518.56 587.28 524.37 590.00 C 517.21 598.62 508.60 606.38 498.80 611.88 C 488.83 606.27 480.26 598.77 472.73 590.21 C 482.49 586.09 491.13 580.02 498.71 572.65 Z" fill="#2e1641" />
</svg>
